<?xml version="1.0" encoding="iso-8859-1"?>
<!-- Uploaded to: SVG Repo, www.svgrepo.com, Generator: SVG Repo Mixer Tools -->
<svg fill="#000000" version="1.1" id="Capa_1" xmlns="http://www.w3.org/2000/svg" xmlns:xlink="http://www.w3.org/1999/xlink" 
	 viewBox="0 0 512 512" xml:space="preserve">
<g>
	<g>
		<path d="M238.008,130.739V73.166h-23.77C208.397,31.87,172.835,0,129.954,0C87.072,0,51.511,31.87,45.67,73.166H20.278v57.573
			h24.532v137.128h-0.161c0,1.224,0.062,2.429,0.161,3.62v110.479H20.278v57.573H45.76C51.903,480.494,87.316,512,129.954,512
			s78.051-31.507,84.194-72.46h23.86v-57.573h-22.912V130.739H238.008z M215.097,88.868h7.21v26.17h-7.21V88.868z M44.811,423.838
			H35.98v-26.17h8.831V423.838z M44.811,115.037H35.98v-26.17h8.831V115.037z M199.395,426.857c0,38.29-31.151,69.441-69.441,69.441
			c-38.29,0-69.441-31.151-69.441-69.441V300.311c6.768,5.126,15.215,8.119,24.371,8.119c22.096,0,40.072-17.953,40.072-40.227
			v-20.34c0-20.345,16.696-36.84,37.22-36.84c20.522,0,37.219,16.019,37.219,36.955V426.857z M199.395,210.485
			c-9.568-9.395-22.719-15.163-37.219-15.163c-29.181,0-52.922,23.539-52.922,52.542v20.34c0,13.615-10.933,24.525-24.37,24.525
			c-12.589,0-22.987-9.747-24.371-22.066V85.143c0-38.29,31.151-69.441,69.441-69.441c38.29,0,69.441,31.151,69.441,69.441V210.485z
			 M215.097,397.668h7.21v26.17h-7.21V397.668z"/>
	</g>
</g>
<g>
	<g>
		<rect x="100.878" y="73.166" width="16.748" height="15.702"/>
	</g>
</g>
<g>
	<g>
		<rect x="142.75" y="73.166" width="14.655" height="15.702"/>
	</g>
</g>
<g>
	<g>
		<rect x="100.878" y="115.041" width="16.748" height="15.702"/>
	</g>
</g>
<g>
	<g>
		<rect x="142.75" y="115.041" width="14.655" height="15.702"/>
	</g>
</g>
<g>
	<g>
		<rect x="100.878" y="381.971" width="16.748" height="15.702"/>
	</g>
</g>
<g>
	<g>
		<rect x="142.75" y="381.971" width="14.655" height="15.702"/>
	</g>
</g>
<g>
	<g>
		<rect x="100.878" y="423.842" width="16.748" height="15.702"/>
	</g>
</g>
<g>
	<g>
		<rect x="142.75" y="423.842" width="14.655" height="15.702"/>
	</g>
</g>
<g>
	<g>
		<path d="M426.066,73.224H313.868c-36.203,0-65.657,29.453-65.657,65.656V256c0,11.286,6.669,21.04,16.272,25.539v10.267
			c0,25.872,17.16,48.558,41.526,55.941c2.028,7.459,7.55,13.491,14.695,16.221v42.074h15.702v-41.565
			c9.838-3.044,17.004-12.225,17.004-23.05c0-10.553-6.815-19.539-16.272-22.804v-5.671c0-2.4,1.952-4.352,4.353-4.352
			c11.059,0,20.055-8.997,20.055-20.055v-28.761h0.932c12.892,0,23.205-10.673,23.478-24.299c0.092-4.546,3.868-8.245,8.42-8.245
			h97.347v-88.358C491.723,102.678,462.269,73.224,426.066,73.224z M337.709,341.428c0,4.645-3.779,8.421-8.421,8.421
			c-4.642,0-8.421-3.778-8.421-8.421s3.778-8.421,8.421-8.421C333.931,333.006,337.709,336.784,337.709,341.428z M345.845,288.544
			h-0.001c0,2.4-1.953,4.354-4.354,4.354c-11.058,0-20.054,8.996-20.054,20.054v5.672c-6.315,2.18-11.447,6.911-14.162,12.958
			c-16.061-6.342-27.089-22.037-27.089-39.776v-7.876c13.761-1.855,24.408-13.668,24.408-27.93v-19.691
			c0-5.002,4.069-9.07,9.07-9.07c4.936,0,7.691,4.59,7.778,8.909c0.261,13.032,11.08,23.635,24.118,23.635h0.286V288.544z
			 M476.021,187.265h-41.217v15.702h41.217v8.57h-81.645c-13.038,0-23.857,10.602-24.118,23.633
			c-0.087,4.32-2.843,8.911-7.781,8.911h-16.918c-4.552,0-8.328-3.699-8.42-8.247c-0.271-13.625-10.583-24.298-23.475-24.298
			c-13.659,0-24.772,11.113-24.772,24.772V256c0,6.887-5.603,12.489-12.489,12.489c-6.887,0-12.49-5.602-12.49-12.489V138.881
			c0-27.545,22.409-49.955,49.956-49.955h112.198c27.545,0,49.955,22.41,49.955,49.955V187.265z"/>
	</g>
</g>
<g>
	<g>
		<rect x="329.077" y="105.62" width="15.702" height="32.45"/>
	</g>
</g>
<g>
	<g>
		<rect x="361.527" y="105.62" width="15.702" height="32.45"/>
	</g>
</g>
<g>
	<g>
		<rect x="393.977" y="105.62" width="15.702" height="32.45"/>
	</g>
</g>
<g>
	<g>
		<rect x="395.024" y="187.269" width="24.076" height="15.702"/>
	</g>
</g>
<g>
	<g>
		<rect x="320.703" y="414.421" width="15.702" height="25.123"/>
	</g>
</g>
</svg>